<svg width="24" height="24" viewBox="0 0 24 24" fill="none" xmlns="http://www.w3.org/2000/svg">
<path fill-rule="evenodd" clip-rule="evenodd" d="M17.25 2.25H6.75C5.09315 2.25 3.75 3.59315 3.75 5.25V17.25C3.75 18.9069 5.09315 20.25 6.75 20.25H7.5L6.15 22.05C5.98923 22.2644 5.95503 22.5482 6.06029 22.7946C6.16554 23.041 6.39426 23.2126 6.66029 23.2446C6.92631 23.2767 7.18923 23.1644 7.35 22.95L9.375 20.25H14.625L16.65 22.95C16.8985 23.2814 17.3686 23.3485 17.7 23.1C18.0314 22.8515 18.0985 22.3814 17.85 22.05L16.5 20.25H17.25C18.9069 20.25 20.25 18.9069 20.25 17.25V5.25C20.25 3.59315 18.9069 2.25 17.25 2.25ZM5.25 11.25V7.5H11.25V11.25H5.25ZM12.75 7.5H18.75V11.25H12.75V7.5ZM6.75 3.75H17.25C18.0784 3.75 18.75 4.42157 18.75 5.25V6H5.25V5.25C5.25 4.42157 5.92157 3.75 6.75 3.75ZM17.25 18.75H6.75C5.92157 18.75 5.25 18.0784 5.25 17.25V12.75H18.75V17.25C18.75 18.0784 18.0784 18.75 17.25 18.75ZM9 16.125C9 16.7463 8.49632 17.25 7.875 17.25C7.25368 17.25 6.75 16.7463 6.75 16.125C6.75 15.5037 7.25368 15 7.875 15C8.49632 15 9 15.5037 9 16.125ZM17.25 16.125C17.25 16.7463 16.7463 17.25 16.125 17.25C15.5037 17.25 15 16.7463 15 16.125C15 15.5037 15.5037 15 16.125 15C16.7463 15 17.25 15.5037 17.25 16.125Z" fill="#121417"/>
</svg>
